<svg xmlns="http://www.w3.org/2000/svg" width="46.688" height="42.78"><path d="M44.908 5.2a2.671 2.671 0 0 0-2.092-1.02H15.699a2.662 2.662 0 0 0-2.538 3.48l4.991 15.61a1.664 1.664 0 0 0 1.579 1.15h20.3a1.663 1.663 0 0 0 1.612-1.27l3.761-15.68a2.666 2.666 0 0 0-.496-2.27zm-.641 22.17H18.08a2.123 2.123 0 0 1-2.029-1.47L8.844 3.54A5.077 5.077 0 0 0 3.999.01H2.423a2.43 2.43 0 0 0 0 4.86h1.576a.243.243 0 0 1 .225.16l7.208 22.36a6.974 6.974 0 0 0 6.65 4.84h26.187a2.43 2.43 0 0 0-.002-4.86zm-24.466 7.66a3.87 3.87 0 1 0 3.871 3.87 3.869 3.869 0 0 0-3.871-3.87zm20.329 0a3.87 3.87 0 1 0 3.871 3.87 3.869 3.869 0 0 0-3.871-3.87z" fill="#262626" fill-rule="evenodd"/></svg>